<?xml version="1.0" standalone="no"?>
<!DOCTYPE svg PUBLIC "-//W3C//DTD SVG 20010904//EN"
 "http://www.w3.org/TR/2001/REC-SVG-20010904/DTD/svg10.dtd">
<svg version="1.0" xmlns="http://www.w3.org/2000/svg"
 width="160.000000pt" height="160.000000pt" viewBox="0 0 160.000000 160.000000"
 preserveAspectRatio="xMidYMid meet">
<metadata>
Created by potrace 1.11, written by Peter Selinger 2001-2013
</metadata>
<g transform="translate(0.000000,160.000000) scale(0.100000,-0.100000)"
fill="#000000" stroke="none">
<path d="M555 1563 c-53 -7 -129 -35 -160 -59 -16 -13 -41 -41 -54 -62 -13
-22 -46 -54 -73 -71 -64 -42 -87 -100 -53 -134 8 -9 17 -44 20 -83 3 -38 8
-79 10 -92 17 -98 27 -743 15 -906 -3 -42 0 -51 21 -67 13 -10 38 -21 54 -25
17 -3 34 -9 40 -12 5 -3 16 -7 25 -8 8 0 32 -4 54 -8 50 -8 344 -10 416 -2
110 12 184 33 215 62 22 20 25 32 25 86 l0 63 83 1 c88 2 173 26 227 64 57 41
100 143 116 278 8 72 11 90 19 102 3 6 0 10 -7 10 -9 0 -9 3 -2 8 12 8 11 135
-1 211 -17 114 -75 204 -150 235 -34 15 -96 26 -164 31 -20 2 -39 4 -43 4 -4
1 -5 22 -4 47 8 104 -29 158 -142 204 -42 18 -95 42 -117 54 -42 22 -98 43
-137 52 -69 15 -188 23 -233 17z m733 -568 c43 -10 55 -63 48 -210 -10 -210
-22 -278 -60 -321 -20 -25 -29 -27 -101 -28 l-78 -1 0 95 c1 130 15 418 22
462 2 14 116 16 169 3z"/>
</g>
</svg>
